<svg width="256" height="256" viewBox="0 0 256 256" fill="none" xmlns="http://www.w3.org/2000/svg">
<rect width="256" height="256" rx="21" fill="white"/>
<path d="M190.582 24C192.531 24 194.111 25.5803 194.111 27.5297C194.111 29.4791 192.531 31.0594 190.582 31.0594C158.352 31.0594 127.442 43.8628 104.652 66.6528C81.8626 89.4428 69.0594 120.353 69.0594 152.583C69.0594 171.974 76.7625 190.571 90.4743 204.283C104.186 217.995 122.783 225.698 142.174 225.698C144.124 225.698 145.704 227.279 145.704 229.228C145.704 231.178 144.124 232.758 142.174 232.758C120.911 232.758 100.518 224.311 85.4825 209.275C70.4469 194.239 62 173.846 62 152.583C62 118.48 75.5469 85.7749 99.6607 61.661C123.774 37.5471 156.48 24 190.582 24Z" fill="black"/>
<path fill-rule="evenodd" clip-rule="evenodd" d="M190.581 178.299C188.631 178.3 187.051 179.88 187.052 181.83C187.053 187.67 185.888 193.452 183.626 198.836C181.363 204.221 178.048 209.099 173.875 213.185C169.702 217.271 164.755 220.483 159.324 222.632C153.894 224.781 148.089 225.823 142.25 225.699C140.301 225.658 138.687 227.204 138.646 229.153C138.604 231.102 140.15 232.716 142.099 232.757C148.878 232.901 155.617 231.691 161.922 229.196C168.226 226.701 173.969 222.973 178.814 218.229C183.658 213.485 187.507 207.822 190.134 201.571C192.761 195.321 194.113 188.608 194.111 181.828C194.111 179.879 192.53 178.299 190.581 178.299Z" fill="black"/>
<path fill-rule="evenodd" clip-rule="evenodd" d="M173.095 151.218C168.988 149.639 164.604 148.903 160.205 149.055C158.257 149.122 156.732 150.756 156.8 152.704C156.867 154.653 158.501 156.178 160.449 156.11C163.9 155.991 167.339 156.568 170.563 157.807C173.786 159.046 176.726 160.922 179.209 163.322C181.692 165.722 183.666 168.597 185.013 171.776C186.361 174.956 187.054 178.374 187.052 181.827C187.051 183.776 188.63 185.358 190.58 185.359C192.529 185.36 194.11 183.781 194.111 181.831C194.114 177.43 193.23 173.074 191.513 169.022C189.796 164.97 187.28 161.305 184.115 158.246C180.951 155.187 177.203 152.797 173.095 151.218Z" fill="black"/>
<path fill-rule="evenodd" clip-rule="evenodd" d="M163.857 152.583C163.857 150.633 162.277 149.053 160.327 149.053C154.577 149.053 149.062 151.337 144.995 155.404C140.929 159.47 138.645 164.985 138.645 170.736C138.645 172.685 140.225 174.265 142.174 174.265C144.124 174.265 145.704 172.685 145.704 170.736C145.704 166.857 147.245 163.138 149.987 160.395C152.729 157.653 156.449 156.112 160.327 156.112C162.277 156.112 163.857 154.532 163.857 152.583Z" fill="black"/>
<path fill-rule="evenodd" clip-rule="evenodd" d="M142.189 167.206C140.24 167.198 138.653 168.772 138.645 170.721C138.636 172.758 139.054 174.775 139.87 176.642C140.687 178.509 141.885 180.184 143.387 181.561C144.888 182.938 146.662 183.986 148.592 184.637C150.523 185.289 152.568 185.529 154.597 185.344C156.538 185.167 157.969 183.449 157.791 181.508C157.614 179.567 155.897 178.137 153.955 178.314C152.906 178.41 151.848 178.285 150.849 177.948C149.851 177.611 148.934 177.069 148.157 176.357C147.38 175.645 146.76 174.778 146.338 173.813C145.916 172.847 145.7 171.804 145.704 170.75C145.712 168.801 144.138 167.214 142.189 167.206Z" fill="black"/>
<path fill-rule="evenodd" clip-rule="evenodd" d="M160.291 171.24C158.342 171.26 156.778 172.856 156.798 174.806C156.806 175.661 156.504 176.49 155.948 177.139C155.392 177.788 154.618 178.213 153.772 178.335C151.843 178.614 150.504 180.404 150.783 182.333C151.061 184.262 152.851 185.601 154.78 185.323C157.319 184.956 159.639 183.681 161.308 181.733C162.977 179.786 163.883 177.298 163.857 174.733C163.837 172.784 162.24 171.22 160.291 171.24Z" fill="black"/>
<path fill-rule="evenodd" clip-rule="evenodd" d="M161.641 169.421C160.223 168.003 158.299 167.206 156.293 167.206C154.344 167.206 152.763 168.786 152.763 170.736C152.763 172.685 154.344 174.265 156.293 174.265C156.427 174.265 156.555 174.318 156.65 174.413C156.744 174.508 156.797 174.636 156.797 174.77C156.797 176.719 158.378 178.299 160.327 178.299C162.277 178.299 163.857 176.719 163.857 174.77C163.857 172.764 163.06 170.84 161.641 169.421Z" fill="black"/>
<path fill-rule="evenodd" clip-rule="evenodd" d="M159.623 169.565C158.976 167.726 156.961 166.759 155.122 167.406C153.782 167.877 152.631 168.771 151.843 169.954C151.054 171.136 150.672 172.542 150.752 173.961C150.863 175.907 152.53 177.395 154.476 177.285C156.299 177.182 157.721 175.712 157.802 173.927C159.419 173.165 160.229 171.287 159.623 169.565Z" fill="black"/>
<path fill-rule="evenodd" clip-rule="evenodd" d="M152.824 170.544C151.047 171.346 150.257 173.437 151.059 175.213C151.615 176.445 152.601 177.431 153.832 177.987C155.609 178.789 157.7 177.999 158.502 176.222C159.226 174.617 158.652 172.757 157.225 171.82C156.289 170.394 154.429 169.82 152.824 170.544Z" fill="black"/>
<path fill-rule="evenodd" clip-rule="evenodd" d="M153.344 171.821C153.976 170.863 155.061 170.231 156.293 170.231C158.243 170.231 159.823 171.812 159.823 173.761C159.823 174.965 159.345 176.119 158.494 176.97C157.643 177.821 156.488 178.299 155.285 178.299C153.335 178.299 151.755 176.719 151.755 174.77C151.755 173.537 152.387 172.452 153.344 171.821Z" fill="black"/>
<path d="M190.582 24C192.531 24 194.111 25.5803 194.111 27.5297C194.111 29.4791 192.531 31.0594 190.582 31.0594C158.352 31.0594 127.442 43.8628 104.652 66.6528C81.8626 89.4428 69.0594 120.353 69.0594 152.583C69.0594 171.974 76.7625 190.571 90.4743 204.283C104.186 217.995 122.783 225.698 142.174 225.698C144.124 225.698 145.704 227.279 145.704 229.228C145.704 231.178 144.124 232.758 142.174 232.758C120.911 232.758 100.518 224.311 85.4825 209.275C70.4469 194.239 62 173.846 62 152.583C62 118.48 75.5469 85.7749 99.6607 61.661C123.774 37.5471 156.48 24 190.582 24Z" stroke="black" stroke-width="10" stroke-linecap="round" stroke-linejoin="round"/>
<path fill-rule="evenodd" clip-rule="evenodd" d="M190.581 178.299C188.631 178.3 187.051 179.88 187.052 181.83C187.053 187.67 185.888 193.452 183.626 198.836C181.363 204.221 178.048 209.099 173.875 213.185C169.702 217.271 164.755 220.483 159.324 222.632C153.894 224.781 148.089 225.823 142.25 225.699C140.301 225.658 138.687 227.204 138.646 229.153C138.604 231.102 140.15 232.716 142.099 232.757C148.878 232.901 155.617 231.691 161.922 229.196C168.226 226.701 173.969 222.973 178.814 218.229C183.658 213.485 187.507 207.822 190.134 201.571C192.761 195.321 194.113 188.608 194.111 181.828C194.111 179.879 192.53 178.299 190.581 178.299Z" stroke="black" stroke-width="10" stroke-linecap="round" stroke-linejoin="round"/>
<path fill-rule="evenodd" clip-rule="evenodd" d="M173.095 151.218C168.988 149.639 164.604 148.903 160.205 149.055C158.257 149.122 156.732 150.756 156.8 152.704C156.867 154.653 158.501 156.178 160.449 156.11C163.9 155.991 167.339 156.568 170.563 157.807C173.786 159.046 176.726 160.922 179.209 163.322C181.692 165.722 183.666 168.597 185.013 171.776C186.361 174.956 187.054 178.374 187.052 181.827C187.051 183.776 188.63 185.358 190.58 185.359C192.529 185.36 194.11 183.781 194.111 181.831C194.114 177.43 193.23 173.074 191.513 169.022C189.796 164.97 187.28 161.305 184.115 158.246C180.951 155.187 177.203 152.797 173.095 151.218Z" stroke="black" stroke-width="10" stroke-linecap="round" stroke-linejoin="round"/>
<path fill-rule="evenodd" clip-rule="evenodd" d="M163.857 152.583C163.857 150.633 162.277 149.053 160.327 149.053C154.577 149.053 149.062 151.337 144.995 155.404C140.929 159.47 138.645 164.985 138.645 170.736C138.645 172.685 140.225 174.265 142.174 174.265C144.124 174.265 145.704 172.685 145.704 170.736C145.704 166.857 147.245 163.138 149.987 160.395C152.729 157.653 156.449 156.112 160.327 156.112C162.277 156.112 163.857 154.532 163.857 152.583Z" stroke="black" stroke-width="10" stroke-linecap="round" stroke-linejoin="round"/>
<path fill-rule="evenodd" clip-rule="evenodd" d="M142.189 167.206C140.24 167.198 138.653 168.772 138.645 170.721C138.636 172.758 139.054 174.775 139.87 176.642C140.687 178.509 141.885 180.184 143.387 181.561C144.888 182.938 146.662 183.986 148.592 184.637C150.523 185.289 152.568 185.529 154.597 185.344C156.538 185.167 157.969 183.449 157.791 181.508C157.614 179.567 155.897 178.137 153.955 178.314C152.906 178.41 151.848 178.285 150.849 177.948C149.851 177.611 148.934 177.069 148.157 176.357C147.38 175.645 146.76 174.778 146.338 173.813C145.916 172.847 145.7 171.804 145.704 170.75C145.712 168.801 144.138 167.214 142.189 167.206Z" stroke="black" stroke-width="10" stroke-linecap="round" stroke-linejoin="round"/>
<path fill-rule="evenodd" clip-rule="evenodd" d="M160.291 171.24C158.342 171.26 156.778 172.856 156.798 174.806C156.806 175.661 156.504 176.49 155.948 177.139C155.392 177.788 154.618 178.213 153.772 178.335C151.843 178.614 150.504 180.404 150.783 182.333C151.061 184.262 152.851 185.601 154.78 185.323C157.319 184.956 159.639 183.681 161.308 181.733C162.977 179.786 163.883 177.298 163.857 174.733C163.837 172.784 162.24 171.22 160.291 171.24Z" stroke="black" stroke-width="10" stroke-linecap="round" stroke-linejoin="round"/>
<path fill-rule="evenodd" clip-rule="evenodd" d="M161.641 169.421C160.223 168.003 158.299 167.206 156.293 167.206C154.344 167.206 152.763 168.786 152.763 170.736C152.763 172.685 154.344 174.265 156.293 174.265C156.427 174.265 156.555 174.318 156.65 174.413C156.744 174.508 156.797 174.636 156.797 174.77C156.797 176.719 158.378 178.299 160.327 178.299C162.277 178.299 163.857 176.719 163.857 174.77C163.857 172.764 163.06 170.84 161.641 169.421Z" stroke="black" stroke-width="10" stroke-linecap="round" stroke-linejoin="round"/>
<path fill-rule="evenodd" clip-rule="evenodd" d="M159.623 169.565C158.976 167.726 156.961 166.759 155.122 167.406C153.782 167.877 152.631 168.771 151.843 169.954C151.054 171.136 150.672 172.542 150.752 173.961C150.863 175.907 152.53 177.395 154.476 177.285C156.299 177.182 157.721 175.712 157.802 173.927C159.419 173.165 160.229 171.287 159.623 169.565Z" stroke="black" stroke-width="10" stroke-linecap="round" stroke-linejoin="round"/>
<path fill-rule="evenodd" clip-rule="evenodd" d="M152.824 170.544C151.047 171.346 150.257 173.437 151.059 175.213C151.615 176.445 152.601 177.431 153.832 177.987C155.609 178.789 157.7 177.999 158.502 176.222C159.226 174.617 158.652 172.757 157.225 171.82C156.289 170.394 154.429 169.82 152.824 170.544Z" stroke="black" stroke-width="10" stroke-linecap="round" stroke-linejoin="round"/>
<path fill-rule="evenodd" clip-rule="evenodd" d="M153.344 171.821C153.976 170.863 155.061 170.231 156.293 170.231C158.243 170.231 159.823 171.812 159.823 173.761C159.823 174.965 159.345 176.119 158.494 176.97C157.643 177.821 156.488 178.299 155.285 178.299C153.335 178.299 151.755 176.719 151.755 174.77C151.755 173.537 152.387 172.452 153.344 171.821Z" stroke="black" stroke-width="10" stroke-linecap="round" stroke-linejoin="round"/>
</svg>
