<?xml version="1.0" standalone="no"?>
<!DOCTYPE svg PUBLIC "-//W3C//DTD SVG 20010904//EN"
 "http://www.w3.org/TR/2001/REC-SVG-20010904/DTD/svg10.dtd">
<svg version="1.0" xmlns="http://www.w3.org/2000/svg"
 width="512.000000pt" height="512.000000pt" viewBox="0 0 512.000000 512.000000"
 preserveAspectRatio="xMidYMid meet">
<metadata>
Created by potrace 1.14, written by Peter Selinger 2001-2017
</metadata>
<g transform="translate(0.000000,512.000000) scale(0.100000,-0.100000)"
fill="#000000" stroke="none">
<path d="M3570 4728 c-445 -41 -878 -196 -1254 -449 -436 -293 -784 -723 -980
-1210 -182 -455 -241 -969 -156 -1361 45 -209 154 -454 277 -628 83 -116 269
-304 381 -385 237 -171 510 -280 794 -315 142 -18 401 -8 500 18 407 110 708
409 815 809 23 84 26 120 27 253 1 136 -2 164 -22 230 -43 137 -97 226 -197
325 -103 102 -197 159 -330 196 -114 33 -292 33 -385 0 -194 -68 -332 -235
-359 -434 -32 -225 99 -415 316 -457 196 -39 375 104 376 299 1 133 -100 251
-213 251 -39 0 -39 16 1 24 116 23 254 -21 350 -111 98 -92 135 -192 126 -348
-17 -315 -218 -579 -524 -689 -87 -31 -90 -31 -283 -31 -182 0 -202 2 -304 28
-273 71 -495 201 -676 395 -281 300 -403 683 -361 1132 78 818 561 1527 1285
1884 302 149 602 226 936 242 163 7 207 23 245 88 49 83 19 189 -65 233 -37
20 -57 23 -134 22 -50 -1 -134 -6 -186 -11z"/>
</g>
</svg>
