<svg xmlns="http://www.w3.org/2000/svg" version="1.0" viewBox="0 0 915 580">
  <defs/>
  <path fill="none" stroke="#000" stroke-width="2.7" d="M 18.898132,563.14957 A 543.94263,543.75146 0 0 1 562.84077,19.398132"/>
  <path fill="none" stroke="#000" stroke-width="2.7" d="M -899.02731,355.46605 A 336.18655,336.06839 0 0 1 -562.84075,19.397675" transform="scale(-1 1)"/>
  <path fill="none" stroke="#000" stroke-width="2.7" d="m -563.14906,-691.27235 a 207.68251,207.75557 0 0 1 207.68251,-207.75556" transform="matrix(0 -1 -1 0 0 0)"/>
  <path fill="none" stroke="#000" stroke-width="2.7" d="M 562.84128,-434.76319 A 128.43051,128.38536 0 0 1 691.27179,-563.14854" transform="scale(1 -1)"/>
  <path fill="none" stroke="#000" stroke-width="2.7" d="m 562.84184,434.7637 a 79.324539,79.296654 0 0 1 79.32454,-79.29665"/>
  <path fill="none" stroke="#000" stroke-width="2.7" d="m -691.27137,404.55478 a 49.105476,49.088211 0 0 1 49.10548,-49.08821" transform="scale(-1 1)"/>
  <path fill="none" stroke="#000" stroke-width="2.7" d="m -691.27178,-404.55426 a 30.218561,30.207939 0 0 1 30.21856,-30.20794" transform="scale(-1)"/>
  <path fill="none" stroke="#000" stroke-width="2.7" d="m 642.16632,-415.8829 a 18.886414,18.879776 0 0 1 18.88641,-18.87978" transform="scale(1 -1)"/>
  <path fill="none" stroke="#000" stroke-width="2.7" d="m 642.16683,415.88342 a 11.331649,11.327665 0 0 1 11.33164,-11.32766"/>
  <path fill="none" stroke="#000" stroke-width="2.7" d="m -661.05231,412.10681 a 7.5542655,7.5516105 0 0 1 7.55426,-7.55161" transform="scale(-1 1)"/>
  <path fill="none" stroke="#000" stroke-width="2.7" d="m -661.05276,-412.10736 a 3.7768829,3.7755551 0 0 1 3.77688,-3.77556" transform="scale(-1)"/>
  <path fill="none" stroke="#000" stroke-width="2.7" d="m 653.50534,-412.10101 a 3.7768831,3.7755556 0 0 1 3.77689,-3.77556" transform="scale(1 -1)"/>
</svg>
