<svg width="131" height="208" viewBox="0 0 131 208" fill="none" xmlns="http://www.w3.org/2000/svg">
  <path d="M3.5 0C1.567 0 0 1.567 0 3.5C0 5.433 1.567 7 3.5 7C35.4586 7 66.1082 19.6955 88.7064 42.2936C111.305 64.8918 124 95.5414 124 127.5C124 146.728 116.362 165.169 102.765 178.765C89.1689 192.362 70.7282 200 51.5 200C49.567 200 48 201.567 48 203.5C48 205.433 49.567 207 51.5 207C72.5847 207 92.8058 198.624 107.715 183.715C122.624 168.806 131 148.585 131 127.5C131 93.6849 117.567 61.2548 93.6561 37.3439C69.7452 13.433 37.3151 0 3.5 0Z" fill="black"/>
  <path fill-rule="evenodd" clip-rule="evenodd" d="M3.50079 153C5.43379 153 7.00044 154.568 7 156.501C6.99869 162.292 8.15378 168.025 10.3975 173.364C12.6412 178.703 15.9284 183.54 20.0663 187.592C24.2042 191.644 29.1095 194.828 34.4944 196.959C39.8794 199.09 45.6356 200.124 51.4255 200.001C53.3581 199.96 54.9581 201.493 54.9992 203.426C55.0403 205.358 53.507 206.958 51.5745 206.999C44.8528 207.142 38.1703 205.942 31.9188 203.468C25.6673 200.994 19.9727 197.297 15.1689 192.593C10.3652 187.89 6.54902 182.274 3.94423 176.076C1.33944 169.878 -0.00152053 163.222 1.29386e-06 156.499C0.00043903 154.566 1.5678 153 3.50079 153Z" fill="black"/>
  <path fill-rule="evenodd" clip-rule="evenodd" d="M20.839 126.147C24.9124 124.581 29.2594 123.852 33.6207 124.002C35.5525 124.069 37.0646 125.689 36.9979 127.621C36.9313 129.553 35.3112 131.065 33.3793 130.998C29.9573 130.88 26.5466 131.452 23.3506 132.681C20.1546 133.909 17.2388 135.769 14.7769 138.149C12.3151 140.528 10.3578 143.38 9.02164 146.532C7.68551 149.685 6.99797 153.074 7 156.498C7.00115 158.431 5.43508 159.999 3.50209 160C1.56909 160.001 0.0011554 158.435 5.74755e-06 156.502C-0.00258944 152.138 0.873693 147.818 2.5766 143.8C4.27952 139.783 6.77418 136.149 9.91179 133.116C13.0494 130.083 16.7657 127.713 20.839 126.147Z" fill="black"/>
  <path fill-rule="evenodd" clip-rule="evenodd" d="M30 127.5C30 125.567 31.567 124 33.5 124C39.2022 124 44.6708 126.265 48.7028 130.297C52.7348 134.329 55 139.798 55 145.5C55 147.433 53.433 149 51.5 149C49.567 149 48 147.433 48 145.5C48 141.654 46.4723 137.966 43.753 135.247C41.0338 132.528 37.3456 131 33.5 131C31.567 131 30 129.433 30 127.5Z" fill="black"/>
  <path fill-rule="evenodd" clip-rule="evenodd" d="M51.4855 142C53.4185 141.992 54.992 143.553 55 145.486C55.0083 147.506 54.5944 149.506 53.7847 151.357C52.975 153.208 51.7874 154.869 50.2981 156.234C48.8088 157.6 47.0506 158.638 45.1363 159.284C43.222 159.93 41.1938 160.169 39.1818 159.986C37.2568 159.81 35.8388 158.107 36.0145 156.182C36.1902 154.257 37.8932 152.839 39.8182 153.014C40.8589 153.11 41.908 152.986 42.8981 152.652C43.8883 152.318 44.7977 151.78 45.568 151.074C46.3384 150.368 46.9526 149.509 47.3714 148.551C47.7903 147.594 48.0044 146.56 48 145.514C47.992 143.582 49.5525 142.008 51.4855 142Z" fill="black"/>
  <path fill-rule="evenodd" clip-rule="evenodd" d="M33.5359 146C35.4688 146.02 37.0196 147.603 36.9998 149.536C36.9911 150.384 37.2905 151.206 37.8422 151.85C38.394 152.493 39.1607 152.915 39.9998 153.036C41.913 153.312 43.2402 155.087 42.9641 157C42.6881 158.913 40.9134 160.24 39.0002 159.964C36.4828 159.601 34.1827 158.336 32.5274 156.405C30.8721 154.474 29.9741 152.007 30.0002 149.464C30.02 147.531 31.603 145.98 33.5359 146Z" fill="black"/>
  <path fill-rule="evenodd" clip-rule="evenodd" d="M32.1967 144.197C33.6032 142.79 35.5109 142 37.5 142C39.433 142 41 143.567 41 145.5C41 147.433 39.433 149 37.5 149C37.3674 149 37.2402 149.053 37.1464 149.146C37.0527 149.24 37 149.367 37 149.5C37 151.433 35.433 153 33.5 153C31.567 153 30 151.433 30 149.5C30 147.511 30.7902 145.603 32.1967 144.197Z" fill="black"/>
  <path fill-rule="evenodd" clip-rule="evenodd" d="M34.1982 144.339C34.8394 142.515 36.8375 141.557 38.6611 142.198C39.9903 142.666 41.1316 143.552 41.9131 144.725C42.6947 145.897 43.0742 147.291 42.9944 148.698C42.8849 150.628 41.2317 152.104 39.3018 151.994C37.494 151.892 36.0846 150.435 36.0036 148.664C34.4006 147.909 33.5975 146.047 34.1982 144.339Z" fill="black"/>
  <path fill-rule="evenodd" clip-rule="evenodd" d="M40.94 145.31C42.7018 146.105 43.4853 148.178 42.69 149.94C42.1389 151.161 41.161 152.139 39.94 152.69C38.1782 153.485 36.1053 152.702 35.31 150.94C34.5917 149.349 35.1611 147.504 36.5758 146.576C37.5042 145.161 39.349 144.592 40.94 145.31Z" fill="black"/>
  <path fill-rule="evenodd" clip-rule="evenodd" d="M40.4241 146.576C39.7981 145.627 38.7222 145 37.5 145C35.567 145 34 146.567 34 148.5C34 149.693 34.4741 150.838 35.318 151.682C36.1619 152.526 37.3065 153 38.5 153C40.433 153 42 151.433 42 149.5C42 148.278 41.3735 147.202 40.4241 146.576Z" fill="black"/>
</svg>
