<svg xmlns="http://www.w3.org/2000/svg" version="1.1" viewBox="0 0 500 500">
        <g fill="none" stroke="#000" stroke-linecap="round" stroke-linejoin="round" stroke-width="1">
          <path d="M200 25A200 200 0 001 225"/>
          <path d="M324 149A124 124 0 00200 25"/>
          <path d="M248 225a76 76 0 0076-76"/>
          <path d="M200 178a47 47 0 0048 47"/>
          <path d="M230 149a29 29 0 00-30 29"/>
          <path d="M248 167a18 18 0 00-18-18"/>
          <path d="M236 178a11 11 0 0012-11"/>
          <path d="M230 171a7 7 0 006 7"/>
          <path d="M234 167a4 4 0 00-4 4"/>
          <path d="M236 170a3 3 0 00-2-3"/>
          <path d="M235 171a2 2 0 001-1"/>
          <path d="M234 170a1 1 0 001 1"/>
          <path d="M235 170a1 1 0 00-1 0"/>
        </g>
      </svg>